<?xml version="1.0" encoding="UTF-8" standalone="no"?>
<svg xmlns="http://www.w3.org/2000/svg" xmlns:xlink="http://www.w3.org/1999/xlink" version="1.1" width="700" height="700" viewBox="610 105.5 700 700"><g id="document" fill="#ffffff" fill-rule="nonzero" font-family="none" font-weight="none" font-size="none"><rect x="610" y="105.5" width="700" height="700" id="Shape-1-1"/></g><g fill="#a6886b" fill-rule="nonzero" stroke="none" stroke-width="1" stroke-linecap="butt" stroke-linejoin="miter" stroke-miterlimit="10" font-family="none" font-weight="none" font-size="none"><g id="stage"><g id="layer1-1"><g id="Group-1"><path d="M967.365,453.36275c0.349,0 0.63,0.285 0.63,0.631c0,0.345 -0.281,0.63 -0.63,0.63h-1.755v1.125h1.755c0.349,0 0.63,0.283 0.63,0.63c0,0.344 -0.281,0.629 -0.63,0.629h-2.386c-0.345,0 -0.627,-0.285 -0.627,-0.629v-4.771c0,-0.345 0.282,-0.63 0.63,-0.63h2.386c0.346,0 0.627,0.285 0.627,0.63c0,0.349 -0.281,0.63 -0.63,0.63h-1.755v1.125zM963.51,456.37875c0,0.27 -0.174,0.51 -0.432,0.596c-0.064,0.021 -0.133,0.031 -0.199,0.031c-0.211,0 -0.391,-0.09 -0.51,-0.25l-2.443,-3.317v2.94c0,0.344 -0.279,0.629 -0.631,0.629c-0.346,0 -0.626,-0.285 -0.626,-0.629v-4.771c0,-0.27 0.173,-0.51 0.43,-0.595c0.06,-0.023 0.136,-0.033 0.194,-0.033c0.195,0 0.375,0.104 0.495,0.254l2.462,3.33v-2.956c0,-0.345 0.282,-0.63 0.63,-0.63c0.345,0 0.63,0.285 0.63,0.63zM957.769,456.37875c0,0.344 -0.282,0.629 -0.631,0.629c-0.345,0 -0.627,-0.285 -0.627,-0.629v-4.771c0,-0.345 0.282,-0.63 0.63,-0.63c0.346,0 0.628,0.285 0.628,0.63zM955.303,457.00775h-2.386c-0.345,0 -0.63,-0.285 -0.63,-0.629v-4.771c0,-0.345 0.285,-0.63 0.63,-0.63c0.348,0 0.63,0.285 0.63,0.63v4.141h1.756c0.348,0 0.629,0.283 0.629,0.63c0,0.344 -0.282,0.629 -0.629,0.629M972,453.81375c0,-5.371 -5.385,-9.742 -12,-9.742c-6.615,0 -12,4.371 -12,9.742c0,4.811 4.27,8.842 10.035,9.608c0.391,0.082 0.923,0.258 1.058,0.59c0.12,0.301 0.079,0.766 0.038,1.08l-0.164,1.02c-0.045,0.301 -0.24,1.186 1.049,0.645c1.291,-0.539 6.916,-4.078 9.436,-6.975c1.724,-1.889 2.548,-3.824 2.548,-5.968" id="CompoundPath-1"/></g></g></g></g></svg>