<?xml version="1.0" encoding="UTF-8" standalone="no"?>
<svg xmlns="http://www.w3.org/2000/svg" xmlns:xlink="http://www.w3.org/1999/xlink" version="1.1" width="700" height="700" viewBox="610 105.5 700 700"><g id="document" fill="#ffffff" fill-rule="nonzero" font-family="none" font-weight="none" font-size="none"><rect x="610" y="105.5" width="700" height="700" id="Shape-1-1"/></g><g fill="#a6886b" fill-rule="nonzero" stroke="none" stroke-width="1" stroke-linecap="butt" stroke-linejoin="miter" stroke-miterlimit="10" font-family="none" font-weight="none" font-size="none"><g id="stage"><g id="layer1-1"><g id="Group-1"><path d="M955.03014,443.58398c-1.2768,0.0602 -2.1487,0.264 -2.911,0.5634c-0.7888,0.3075 -1.4575,0.72 -2.1228,1.3877c-0.6652,0.6677 -1.075,1.3368 -1.3802,2.127c-0.2954,0.7638 -0.4956,1.6365 -0.552,2.914c-0.0564,1.2775 -0.0689,1.6882 -0.0626,4.947c0.0062,3.2586 0.0206,3.6671 0.0825,4.9473c0.061,1.2765 0.264,2.1482 0.5635,2.9107c0.308,0.7889 0.72,1.4573 1.388,2.1228c0.6679,0.6655 1.3365,1.0743 2.1285,1.38c0.7632,0.295 1.6361,0.4961 2.9134,0.552c1.2773,0.056 1.6884,0.069 4.9462,0.0627c3.2578,-0.0062 3.668,-0.0207 4.9478,-0.0814c1.28,-0.0607 2.147,-0.2652 2.9098,-0.5633c0.7889,-0.3086 1.4578,-0.72 2.1228,-1.3881c0.665,-0.6682 1.0745,-1.3378 1.3795,-2.1284c0.2957,-0.7632 0.4966,-1.636 0.552,-2.9124c0.056,-1.2809 0.0692,-1.6898 0.063,-4.948c-0.0063,-3.2583 -0.021,-3.6668 -0.0817,-4.9465c-0.0607,-1.2797 -0.264,-2.1487 -0.5633,-2.9117c-0.3084,-0.7889 -0.72,-1.4568 -1.3876,-2.1228c-0.6677,-0.666 -1.3379,-1.0752 -2.1281,-1.3795c-0.7638,-0.2955 -1.6361,-0.4968 -2.9134,-0.552c-1.2773,-0.0552 -1.6884,-0.0695 -4.9474,-0.0631c-3.259,0.0062 -3.667,0.0201 -4.9469,0.0825M955.17034,465.27708c-1.17,-0.0509 -1.8053,-0.2453 -2.2287,-0.408c-0.5606,-0.216 -0.96,-0.4771 -1.3819,-0.895c-0.422,-0.4178 -0.6811,-0.8186 -0.9,-1.378c-0.1644,-0.4234 -0.3624,-1.058 -0.4171,-2.228c-0.0595,-1.2645 -0.072,-1.6442 -0.079,-4.848c-0.007,-3.2037 0.0053,-3.583 0.0607,-4.848c0.05,-1.169 0.2456,-1.805 0.408,-2.2282c0.216,-0.5613 0.4762,-0.96 0.895,-1.3816c0.4188,-0.4217 0.8184,-0.6814 1.3783,-0.9003c0.423,-0.1651 1.0575,-0.3614 2.227,-0.4171c1.2655,-0.06 1.6447,-0.072 4.848,-0.079c3.2033,-0.007 3.5835,0.005 4.8495,0.0608c1.169,0.0508 1.8053,0.2445 2.228,0.408c0.5608,0.216 0.96,0.4754 1.3816,0.895c0.4217,0.4194 0.6816,0.8176 0.9005,1.3787c0.1653,0.4217 0.3617,1.056 0.4169,2.2263c0.0602,1.2655 0.0739,1.645 0.0796,4.848c0.0058,3.203 -0.0055,3.5834 -0.061,4.848c-0.051,1.17 -0.245,1.8055 -0.408,2.2294c-0.216,0.5604 -0.4763,0.96 -0.8954,1.3814c-0.419,0.4215 -0.8181,0.6811 -1.3783,0.9c-0.4224,0.1649 -1.0577,0.3617 -2.2262,0.4174c-1.2656,0.0595 -1.6448,0.072 -4.8493,0.079c-3.2045,0.007 -3.5825,-0.006 -4.848,-0.0608M964.95304,449.08638c0.00097,0.58248 0.35275,1.10701 0.89129,1.32896c0.53854,0.22195 1.15775,0.09761 1.56885,-0.31504c0.4111,-0.41265 0.53312,-1.03232 0.30915,-1.57002c-0.22397,-0.5377 -0.74981,-0.88751 -1.33229,-0.8863c-0.79506,0.00166 -1.43833,0.64734 -1.437,1.4424M953.83854,455.51198c0.0067,3.4032 2.7706,6.1557 6.173,6.1493c3.4026,-0.0065 6.157,-2.7701 6.1506,-6.1733c-0.0065,-3.4032 -2.771,-6.1565 -6.174,-6.1498c-3.403,0.0067 -6.156,2.771 -6.1496,6.1738M956.00004,455.50768c-0.00436,-2.20912 1.78294,-4.0035 3.99206,-4.00788c2.20912,-0.00438 4.00352,1.7829 4.00792,3.99202c0.0044,2.20912 -1.78286,4.00354 -3.99198,4.00796c-1.06092,0.00223 -2.07926,-0.41714 -2.83093,-1.16583c-0.75167,-0.74869 -1.17508,-1.76535 -1.17707,-2.82627" id="CompoundPath-1"/></g></g></g></g></svg>